# xmcd CD database file
# Copyright (C) 1996 Ti Kan
#
# Track frame offsets:
#	150
#	11082
#	21815
#	33815
#	47627
#	57362
#	71817
#	83472
#	95460
#	107100
#	117572
#	130620
#	144165
#	158182
#	167547
#	178642
#	190162
#	201695
#	212280
#	223515
#	233865
#	242512
#	254340
#	267327
#	279035
#	290745
#	299960
#	312485
#	323120
#
# Disc length: 4479 seconds
#
# Revision: 1
# Processed by: cddbd v1.4b41PL1 Copyright (c) Steve Scherf et al.
# Submitted via: EasyCD 2.21 - (C) 1996 Greg Leichner
#
DISCID=ad117d1d
DTITLE=Tennessee Ernie Ford - Capitol Collector's Series
DYEAR=1900
DGENRE=
TTITLE0=Tennessee Border
TTITLE1=Country Junction
TTITLE2=Smokey Mountain Boogie
TTITLE3=Mule Train
TTITLE4=Anticipation Blues
TTITLE5=Cry Of The Wild Goose
TTITLE6=I'll Never Be Free
TTITLE7=Ain't Nobody's Business But My Own
TTITLE8=Shot-Gun Boogie
TTITLE9=Tailor Made Woman
TTITLE10=I'm A Bad Man
TTITLE11=The Strange Little Girl
TTITLE12=Mister And Mississippi
TTITLE13=Kissin' Bug Boogie
TTITLE14=Blackberry Boogie
TTITLE15=Hog-Tied Over You
TTITLE16=I Don't Know
TTITLE17=Hey, Mr. Cotton Picker
TTITLE18=Celebratin'
TTITLE19=Catfish Boogie
TTITLE20=The Honeymoon's Over
TTITLE21=River Of Not Return
TTITLE22=The Ballad Of Davy Crockett
TTITLE23=His Hands
TTITLE24=Sixteen Tons
TTITLE25=Nine Pound Hammer
TTITLE26=That's All
TTITLE27=In The Middle Of An Island
TTITLE28=Hicktown
EXTD=
EXTT0=
EXTT1=
EXTT2=
EXTT3=
EXTT4=
EXTT5=
EXTT6=
EXTT7=
EXTT8=
EXTT9=
EXTT10=
EXTT11=
EXTT12=
EXTT13=
EXTT14=
EXTT15=
EXTT16=
EXTT17=
EXTT18=
EXTT19=
EXTT20=
EXTT21=
EXTT22=
EXTT23=
EXTT24=
EXTT25=
EXTT26=
EXTT27=
EXTT28=
PLAYORDER=
